<?xml version="1.0" encoding="utf-8"?>
<!-- Generator: Adobe Illustrator 23.0.6, SVG Export Plug-In . SVG Version: 6.00 Build 0)  -->
<svg version="1.1" id="Layer_1" xmlns="http://www.w3.org/2000/svg" xmlns:xlink="http://www.w3.org/1999/xlink" x="0px" y="0px"
	 viewBox="0 0 138.41 50" style="enable-background:new 0 0 138.41 50;" xml:space="preserve">
<style type="text/css">
	.st0{fill:#00733E;}
</style>
<title>rss</title>
<g>
	<title>Layer 1</title>
	<path id="svg_1" class="st0" d="M78.24,0.42c-3.95,0.92-5.91,3-5.93,6.29c-0.02,3.83,2.13,5.59,9.01,7.39
		c3.35,0.87,4.48,2.38,2.9,3.85c-1.8,1.67-5.31,0.59-5.76-1.77c-0.22-1.18-0.21-1.17-3.9-0.97l-3.27,0.18l0.16,1.03
		c0.24,1.59,1.55,4.04,2.67,4.99c3.31,2.83,12.41,2.54,15.53-0.5l0.91-0.89l0.17,1.03c0.64,3.8,4.5,7.36,8.93,8.27l1.42,0.29
		l-0.84,1.1c-2.78,3.64-2.86,11.08-0.16,14.94c4.13,5.91,15.75,5.74,19.58-0.29l0.71-1.12v5.35h18.01v-5.75h-10.76V27.09h-7.26
		l-0.01,2.56c-0.01,2.09-0.07,2.48-0.31,2.08c-1.38-2.26-4.06-4.14-6.7-4.68l-1.42-0.29l1.44-1.08c4.48-3.37,7.27-9.51,6.55-14.42
		c-1.88-12.92-20.49-13.12-27.58-0.3c-0.46,0.83-0.85,1.53-0.87,1.56c-0.02,0.03-0.66-0.54-1.42-1.28
		c-1.58-1.53-2.85-2.09-7.16-3.16c-4.01-0.99-4.83-1.69-3.48-2.96c1.28-1.21,4.07-0.42,4.7,1.32c0.37,1.02,0.3,1.01,4.56,0.73
		l2.47-0.16l-0.16-0.98C90.29,1.46,84.56-1.05,78.24,0.42L78.24,0.42L78.24,0.42z M1.56,11.82v11.26h7.26v-9.01h0.74
		c1.16,0,1.87,0.86,4.11,5l2.1,3.88l4.03,0.07c2.22,0.04,4.03,0,4.03-0.08c0-1.27-4.52-8.59-5.78-9.35l-0.69-0.42l1.39-0.73
		c5.15-2.69,4.17-10.41-1.47-11.62c-0.71-0.15-4.32-0.27-8.48-0.27H1.56L1.56,11.82C1.56,11.82,1.56,11.82,1.56,11.82z M111.41,2.52
		c11.32,2.96,10.29,18.84-1.61,24.64c-12.12,5.91-22.92-3.79-17.16-15.41C96,4.98,104.6,0.75,111.41,2.52
		C111.41,2.53,111.41,2.52,111.41,2.52z M13.81,5.64c2.55,1.29,0.86,3.67-2.75,3.87L8.81,9.64V5.32l2.19,0
		C12.25,5.32,13.46,5.46,13.81,5.64L13.81,5.64z M107.41,7.63c-1.99,0.53-4.02,2.54-4.02,3.99c0,2.37,1.89,3.23,4.88,2.2
		c1.83-0.63,2.29-0.63,2.63,0c0.57,1.07-1.3,2.16-2.4,1.39c-0.55-0.38-2.58,0.83-2.6,1.55c-0.03,1.09,2.73,1.51,4.43,0.66
		c5.38-2.68,3.85-8.44-1.73-6.51c-2.23,0.77-2.71,0.8-2.71,0.18c0-0.97,1.52-1.67,2.18-1.01c0.27,0.27,2.32-1.09,2.32-1.54
		C110.39,7.89,108.57,7.32,107.41,7.63L107.41,7.63L107.41,7.63z M99.33,13.03c-1.19,0.86-1.25,0.64,0.94,3.75
		c1.35,1.91,1.87,2.86,1.81,3.3c-0.09,0.76-0.95,0.97-1.55,0.37c-0.38-0.38-0.48-0.35-1.39,0.42c-2.29,1.96,1.19,3.65,3.78,1.83
		c2.84-2,2.85-3.24,0.02-7.36C100.75,12.14,100.65,12.07,99.33,13.03C99.33,13.03,99.33,13.03,99.33,13.03z M7.49,26.84
		C3.39,27.49,1,29.88,0.97,33.36c-0.03,3.55,2.27,5.57,7.96,6.99c3.49,0.87,4.64,1.54,4.64,2.69c0,3.24-5.79,2.91-6.41-0.36
		c-0.21-1.14-0.19-1.13-3.88-0.93L0,41.92l0.16,1.03c0.75,4.7,3.48,6.66,9.57,6.85c4.83,0.15,6.49-0.32,8.6-2.43l1.44-1.44
		l0.53,0.72c3.07,4.15,13.44,4.43,16.84,0.45c1-1.16,2.11-3.35,2.23-4.36c0.08-0.71,0.06-0.72-2.98-1.64l-3.06-0.93l-0.41,1.23
		c-1.4,4.21-6.68,4.26-7.84,0.07c-0.39-1.42-0.35-4.82,0.09-6.28c1.05-3.54,5.49-4.26,7.29-1.19c0.75,1.28,0.55,1.26,3.96,0.49
		c3.25-0.73,3.11-0.6,2.37-2.2c-2.94-6.32-12.81-7.8-18.04-2.71l-1.46,1.42l-0.61-1.03C17.2,27.38,12.44,26.06,7.49,26.84
		C7.49,26.84,7.49,26.84,7.49,26.84z M76.62,26.85c-2.77,0.48-5.51,2.22-7.06,4.49c-0.41,0.61-0.42,0.56-0.44-1.82l-0.01-2.44h-7.26
		v7.76H54.6v-7.76h-7.26V49.6h7.26V40.6h7.26v9.01h7.26v-5.09l0.78,1.18c3.26,4.92,13.34,5.78,17.93,1.54
		c5.31-4.92,4.27-16.1-1.79-19.19C83.7,26.85,79.6,26.33,76.62,26.85L76.62,26.85z M11.56,31.46c0.42,0.22,0.91,0.8,1.18,1.41
		l0.46,1.04l4.89-0.24l-0.16,1.28c-0.21,1.69-0.31,1.75-1.71,1.13c-0.66-0.29-2.51-0.86-4.11-1.26c-3.79-0.95-4.26-1.15-4.45-1.92
		C7.29,31.47,9.79,30.55,11.56,31.46C11.56,31.46,11.56,31.46,11.56,31.46z M80.91,32.35c3.71,1.03,4.46,9.53,1.02,11.56
		c-2.57,1.51-5.81,0.22-6.57-2.6C73.84,35.68,76.64,31.16,80.91,32.35z M111.16,32.34c4.31,1.2,4.22,10.87-0.11,12.04
		c-3.48,0.94-5.79-1.48-5.77-6.03C105.29,33.62,107.53,31.33,111.16,32.34C111.16,32.34,111.16,32.34,111.16,32.34z"/>
</g>
</svg>
