<?xml version="1.0" encoding="utf-8"?>
<!-- Generator: Adobe Illustrator 23.0.6, SVG Export Plug-In . SVG Version: 6.00 Build 0)  -->
<svg version="1.1" id="Layer_1" xmlns="http://www.w3.org/2000/svg" xmlns:xlink="http://www.w3.org/1999/xlink" x="0px" y="0px"
	 viewBox="0 0 50 50" style="enable-background:new 0 0 50 50;" xml:space="preserve">
<path d="M45.96,50H4.04C1.81,50,0,48.19,0,45.96V4.04C0,1.81,1.81,0,4.04,0h41.93C48.19,0,50,1.81,50,4.04v41.93
	C50,48.19,48.19,50,45.96,50z M4.04,2.83c-0.66,0-1.21,0.54-1.21,1.21v41.93c0,0.66,0.54,1.21,1.21,1.21h41.93
	c0.66,0,1.21-0.54,1.21-1.21V4.04c0-0.66-0.54-1.21-1.21-1.21H4.04z"/>
<g>
	<rect x="9" y="31" width="8" height="8"/>
	<rect x="22" y="31" width="8" height="8"/>
	<rect x="35" y="31" width="8" height="8"/>
</g>
<g>
	<rect x="9" y="11" width="8" height="8"/>
	<rect x="22" y="11" width="8" height="8"/>
	<rect x="35" y="11" width="8" height="8"/>
</g>
</svg>
