<?xml version="1.0" encoding="utf-8"?>
<!-- Generator: Adobe Illustrator 23.0.6, SVG Export Plug-In . SVG Version: 6.00 Build 0)  -->
<svg version="1.1" id="Layer_1" xmlns="http://www.w3.org/2000/svg" xmlns:xlink="http://www.w3.org/1999/xlink" x="0px" y="0px"
	 viewBox="0 0 30 30" style="enable-background:new 0 0 30 30;" xml:space="preserve">
<g>
	<path d="M5.45,26.55c-0.51,0-1.02-0.2-1.41-0.59c-0.78-0.78-0.78-2.05,0-2.83l19.1-19.1c0.78-0.78,2.05-0.78,2.83,0
		c0.78,0.78,0.78,2.05,0,2.83l-19.1,19.1C6.47,26.35,5.96,26.55,5.45,26.55z"/>
	<path d="M24.55,26.55c-0.51,0-1.02-0.2-1.41-0.59L4.04,6.86c-0.78-0.78-0.78-2.05,0-2.83c0.78-0.78,2.05-0.78,2.83,0l19.1,19.1
		c0.78,0.78,0.78,2.05,0,2.83C25.57,26.35,25.06,26.55,24.55,26.55z"/>
</g>
</svg>
