<?xml version="1.0" encoding="utf-8"?>
<!-- Generator: Adobe Illustrator 23.0.6, SVG Export Plug-In . SVG Version: 6.00 Build 0)  -->
<svg version="1.1" id="Layer_1" xmlns="http://www.w3.org/2000/svg" xmlns:xlink="http://www.w3.org/1999/xlink" x="0px" y="0px"
	 viewBox="0 0 11 28" style="enable-background:new 0 0 11 28;" xml:space="preserve">
<style type="text/css">
	.st0{fill:none;stroke:#000000;stroke-linecap:round;stroke-miterlimit:10;}
</style>
<path class="st0" d="M10.5,19.94V5.06c0-2.52-2.04-4.56-4.56-4.56H5.06C2.54,0.5,0.5,2.54,0.5,5.06c0-2.52,2.04-4.56,4.56-4.56h0.89
	c2.52,0,4.56,2.04,4.56,4.56v0.89V7.5v16c0,2.21-1.79,4-4,4h0c-2.21,0-4-1.79-4-4v-14c0-1.66,1.34-3,3-3h0c1.66,0,3,1.34,3,3v12"/>
</svg>
